<svg width="556" height="129" viewBox="0 0 556 129" fill="none" xmlns="http://www.w3.org/2000/svg">
<path fill-rule="evenodd" clip-rule="evenodd" d="M81.5 7L97.0822 42.0077C97.6796 43.3521 98.6219 44.5158 99.8142 45.3801C101.005 46.2456 102.403 46.7814 103.869 46.9355L142 50.9258L113.498 76.5529C112.403 77.5372 111.587 78.7919 111.132 80.1919C110.678 81.5907 110.599 83.0867 110.906 84.5259L118.891 122L85.6946 102.831C84.4189 102.094 82.9727 101.706 81.5 101.706C80.0273 101.706 78.5811 102.094 77.3054 102.831L44.1087 122L52.095 84.5259C52.4019 83.0867 52.3236 81.5907 51.8676 80.1919C51.4129 78.7919 50.597 77.5372 49.5019 76.5529L21 50.9258L59.1327 46.9355C60.5966 46.7814 61.9947 46.2456 63.1858 45.3801C64.3781 44.5158 65.3204 43.3521 65.919 42.0077L81.5 7Z" fill="#F4C01E"/>
<path fill-rule="evenodd" clip-rule="evenodd" d="M212.5 7L228.082 42.0077C228.68 43.3521 229.622 44.5158 230.814 45.3801C232.005 46.2456 233.403 46.7814 234.869 46.9355L273 50.9258L244.498 76.5529C243.403 77.5372 242.587 78.7919 242.132 80.1919C241.678 81.5907 241.599 83.0867 241.906 84.5259L249.891 122L216.695 102.831C215.419 102.094 213.973 101.706 212.5 101.706C211.027 101.706 209.581 102.094 208.305 102.831L175.109 122L183.095 84.5259C183.402 83.0867 183.324 81.5907 182.868 80.1919C182.413 78.7919 181.597 77.5372 180.502 76.5529L152 50.9258L190.133 46.9355C191.597 46.7814 192.995 46.2456 194.186 45.3801C195.378 44.5158 196.32 43.3521 196.919 42.0077L212.5 7Z" fill="#F4C01E"/>
<path fill-rule="evenodd" clip-rule="evenodd" d="M343.5 7L359.082 42.0077C359.68 43.3521 360.622 44.5158 361.814 45.3801C363.005 46.2456 364.403 46.7814 365.869 46.9355L404 50.9258L375.498 76.5529C374.403 77.5372 373.587 78.7919 373.132 80.1919C372.678 81.5907 372.599 83.0867 372.906 84.5259L380.891 122L347.695 102.831C346.419 102.094 344.973 101.706 343.5 101.706C342.027 101.706 340.581 102.094 339.305 102.831L306.109 122L314.095 84.5259C314.402 83.0867 314.324 81.5907 313.868 80.1919C313.413 78.7919 312.597 77.5372 311.502 76.5529L283 50.9258L321.133 46.9355C322.597 46.7814 323.995 46.2456 325.186 45.3801C326.378 44.5158 327.32 43.3521 327.919 42.0077L343.5 7Z" fill="#F4C01E"/>
<path fill-rule="evenodd" clip-rule="evenodd" d="M474.5 7L490.082 42.0077C490.68 43.3521 491.622 44.5158 492.814 45.3801C494.005 46.2456 495.403 46.7814 496.869 46.9355L535 50.9258L506.498 76.5529C505.403 77.5372 504.587 78.7919 504.132 80.1919C503.678 81.5907 503.599 83.0867 503.906 84.5259L511.891 122L478.695 102.831C477.419 102.094 475.973 101.706 474.5 101.706C473.027 101.706 471.581 102.094 470.305 102.831L437.109 122L445.095 84.5259C445.402 83.0867 445.324 81.5907 444.868 80.1919C444.413 78.7919 443.597 77.5372 442.502 76.5529L414 50.9258L452.133 46.9355C453.597 46.7814 454.995 46.2456 456.186 45.3801C457.378 44.5158 458.32 43.3521 458.919 42.0077L474.5 7Z" fill="#F4C01E"/>
</svg>
