<svg width="163" height="129" viewBox="0 0 163 129" fill="none" xmlns="http://www.w3.org/2000/svg">
<path fill-rule="evenodd" clip-rule="evenodd" d="M81.5 7L97.0822 42.0077C97.6796 43.3521 98.6219 44.5158 99.8142 45.3801C101.005 46.2456 102.403 46.7814 103.869 46.9355L142 50.9258L113.498 76.5529C112.403 77.5372 111.587 78.7919 111.132 80.1919C110.678 81.5907 110.599 83.0867 110.906 84.5259L118.891 122L85.6946 102.831C84.4189 102.094 82.9727 101.706 81.5 101.706C80.0273 101.706 78.5811 102.094 77.3054 102.831L44.1087 122L52.095 84.5259C52.4019 83.0867 52.3236 81.5907 51.8676 80.1919C51.4129 78.7919 50.597 77.5372 49.5019 76.5529L21 50.9258L59.1327 46.9355C60.5966 46.7814 61.9947 46.2456 63.1858 45.3801C64.3781 44.5158 65.3204 43.3521 65.919 42.0077L81.5 7Z" fill="#F4C01E"/>
</svg>
