<svg xmlns="http://www.w3.org/2000/svg" xmlns:xlink="http://www.w3.org/1999/xlink" width="100" zoomAndPan="magnify" viewBox="0 0 75 74.999997" height="100" preserveAspectRatio="xMidYMid meet" version="1.0"><defs><g/><clipPath id="d5bd445572"><path d="M 24.78125 34.1875 L 64.53125 34.1875 L 64.53125 42.4375 L 24.78125 42.4375 Z M 24.78125 34.1875 " clip-rule="nonzero"/></clipPath><clipPath id="dfe33d766f"><path d="M 10.464844 19.558594 L 50.214844 19.558594 L 50.214844 30 L 10.464844 30 Z M 10.464844 19.558594 " clip-rule="nonzero"/></clipPath><clipPath id="7b9e88d207"><path d="M 15.136719 8.515625 L 59.863281 8.515625 L 59.863281 53.242188 L 15.136719 53.242188 Z M 15.136719 8.515625 " clip-rule="nonzero"/></clipPath><clipPath id="5e40bddf8f"><path d="M 37.5 8.515625 C 25.148438 8.515625 15.136719 18.527344 15.136719 30.878906 C 15.136719 43.230469 25.148438 53.242188 37.5 53.242188 C 49.851562 53.242188 59.863281 43.230469 59.863281 30.878906 C 59.863281 18.527344 49.851562 8.515625 37.5 8.515625 " clip-rule="nonzero"/></clipPath><clipPath id="f990b5a107"><path d="M 11.5 23 L 51.25 23 L 51.25 33 L 11.5 33 Z M 11.5 23 " clip-rule="nonzero"/></clipPath><clipPath id="3a61bb3612"><path d="M 23.746094 30.851562 L 63.496094 30.851562 L 63.496094 39.101562 L 23.746094 39.101562 Z M 23.746094 30.851562 " clip-rule="nonzero"/></clipPath></defs><g clip-path="url(#d5bd445572)"><path fill="#ffffff" d="M 41.304688 36.910156 C 40.664062 36.910156 40.035156 36.753906 39.472656 36.460938 L 37.777344 35.089844 C 37.042969 34.492188 36.113281 34.1875 35.164062 34.21875 L 25.234375 35.097656 C 24.980469 35.105469 24.78125 35.3125 24.78125 35.550781 C 24.78125 35.792969 24.980469 35.984375 25.234375 35.976562 L 34.058594 35.550781 C 34.40625 35.539062 34.691406 35.789062 34.691406 36.105469 C 34.691406 36.425781 34.40625 36.6875 34.058594 36.695312 L 25.234375 36.945312 C 24.980469 36.949219 24.78125 37.148438 24.78125 37.390625 C 24.78125 37.632812 24.980469 37.824219 25.234375 37.824219 L 34.058594 37.734375 C 34.40625 37.734375 34.691406 37.988281 34.691406 38.308594 C 34.691406 38.628906 34.40625 38.882812 34.058594 38.878906 L 25.234375 38.792969 C 24.980469 38.792969 24.78125 38.988281 24.78125 39.230469 C 24.78125 39.472656 24.980469 39.671875 25.234375 39.675781 L 34.058594 39.925781 C 34.40625 39.933594 34.691406 40.195312 34.691406 40.515625 C 34.691406 40.832031 34.40625 41.085938 34.058594 41.074219 L 25.234375 40.644531 C 24.980469 40.636719 24.78125 40.828125 24.78125 41.070312 C 24.78125 41.3125 24.980469 41.515625 25.234375 41.527344 L 35.164062 42.402344 C 36.113281 42.433594 37.039062 42.125 37.777344 41.53125 L 39.472656 40.160156 C 40.039062 39.863281 40.664062 39.710938 41.304688 39.710938 C 41.304688 39.710938 50.785156 39.074219 59.9375 40.28125 C 59.9375 40.28125 64.53125 41.214844 64.53125 38.3125 C 64.53125 35.414062 59.9375 36.347656 59.9375 36.347656 C 50.785156 37.546875 41.304688 36.910156 41.304688 36.910156 Z M 41.304688 36.910156 " fill-opacity="1" fill-rule="nonzero"/></g><g clip-path="url(#dfe33d766f)"><path fill="#ffffff" d="M 35.917969 26.171875 C 36.695312 27.445312 37.730469 30.054688 42.257812 29.640625 C 46.628906 29.238281 50.066406 27.257812 50.207031 25.042969 C 50.207031 25.070312 50.210938 25.097656 50.210938 25.125 C 50.210938 25.101562 50.210938 25.078125 50.210938 25.054688 C 50.210938 25.015625 50.210938 24.972656 50.210938 24.933594 C 50.210938 24.886719 50.210938 24.84375 50.210938 24.800781 C 50.210938 24.761719 50.210938 24.722656 50.210938 24.683594 C 50.210938 24.644531 50.210938 24.605469 50.210938 24.5625 C 50.210938 24.527344 50.210938 24.492188 50.210938 24.457031 C 50.210938 24.488281 50.207031 24.519531 50.203125 24.550781 C 50.042969 22.457031 46.613281 20.332031 42.257812 19.957031 C 37.730469 19.566406 36.773438 22.074219 35.917969 23.214844 C 35.285156 24.054688 33.957031 23.972656 33.957031 23.972656 C 33.957031 23.972656 32.859375 23.914062 30.523438 23.734375 C 28.289062 23.5625 16.589844 22.570312 14.46875 22.570312 C 12.472656 22.570312 10.613281 22.339844 10.472656 24.222656 C 10.472656 24.199219 10.46875 24.179688 10.46875 24.160156 L 10.46875 24.121094 C 10.464844 24.191406 10.464844 24.269531 10.46875 24.347656 C 10.464844 24.429688 10.464844 24.519531 10.46875 24.609375 L 10.46875 24.621094 C 10.46875 24.667969 10.464844 24.714844 10.464844 24.765625 C 10.46875 24.726562 10.46875 24.695312 10.472656 24.660156 C 10.613281 26.90625 14.167969 26.457031 14.167969 26.457031 C 14.167969 26.457031 28.175781 25.730469 30.511719 25.558594 C 33.039062 25.375 33.957031 25.351562 33.957031 25.351562 C 33.957031 25.351562 35.355469 25.253906 35.917969 26.171875 " fill-opacity="1" fill-rule="nonzero"/></g><g clip-path="url(#7b9e88d207)"><g clip-path="url(#5e40bddf8f)"><path fill="#ffffff" d="M 15.136719 8.515625 L 59.863281 8.515625 L 59.863281 53.242188 L 15.136719 53.242188 Z M 15.136719 8.515625 " fill-opacity="1" fill-rule="nonzero"/></g></g><g clip-path="url(#f990b5a107)"><path fill="#f6f6f6" d="M 36.957031 29.273438 C 37.730469 30.542969 38.765625 33.15625 43.296875 32.738281 C 47.664062 32.339844 51.101562 30.355469 51.242188 28.140625 C 51.242188 28.167969 51.246094 28.195312 51.246094 28.226562 C 51.246094 28.203125 51.246094 28.179688 51.246094 28.15625 C 51.25 28.113281 51.246094 28.074219 51.246094 28.03125 C 51.246094 27.988281 51.25 27.941406 51.246094 27.898438 C 51.25 27.859375 51.246094 27.824219 51.246094 27.785156 C 51.246094 27.746094 51.25 27.703125 51.246094 27.664062 C 51.25 27.628906 51.246094 27.59375 51.246094 27.558594 C 51.246094 27.589844 51.242188 27.617188 51.242188 27.648438 C 51.082031 25.554688 47.652344 23.429688 43.296875 23.054688 C 38.765625 22.664062 37.8125 25.175781 36.957031 26.3125 C 36.320312 27.152344 34.992188 27.074219 34.992188 27.074219 C 34.992188 27.074219 33.898438 27.015625 31.5625 26.835938 C 29.328125 26.660156 17.628906 25.667969 15.503906 25.667969 C 13.507812 25.667969 11.652344 25.4375 11.511719 27.320312 C 11.507812 27.300781 11.503906 27.28125 11.503906 27.257812 L 11.503906 27.21875 C 11.5 27.292969 11.5 27.367188 11.503906 27.445312 C 11.5 27.53125 11.5 27.617188 11.503906 27.710938 L 11.503906 27.71875 C 11.503906 27.765625 11.503906 27.8125 11.503906 27.863281 C 11.503906 27.828125 11.507812 27.792969 11.507812 27.757812 C 11.652344 30.003906 15.207031 29.554688 15.207031 29.554688 C 15.207031 29.554688 29.214844 28.832031 31.546875 28.660156 C 34.074219 28.472656 34.992188 28.449219 34.992188 28.449219 C 34.992188 28.449219 36.394531 28.355469 36.957031 29.273438 " fill-opacity="1" fill-rule="nonzero"/></g><g clip-path="url(#3a61bb3612)"><path fill="#f6f6f6" d="M 40.265625 33.574219 C 39.628906 33.574219 39 33.417969 38.433594 33.125 L 36.742188 31.753906 C 36.003906 31.15625 35.074219 30.851562 34.128906 30.882812 L 24.195312 31.761719 C 23.945312 31.769531 23.746094 31.976562 23.746094 32.214844 C 23.746094 32.457031 23.945312 32.648438 24.195312 32.640625 L 33.019531 32.214844 C 33.367188 32.203125 33.652344 32.453125 33.652344 32.769531 C 33.652344 33.089844 33.367188 33.351562 33.019531 33.359375 L 24.195312 33.609375 C 23.945312 33.613281 23.746094 33.8125 23.746094 34.054688 C 23.746094 34.292969 23.945312 34.488281 24.195312 34.488281 L 33.019531 34.398438 C 33.367188 34.394531 33.652344 34.652344 33.652344 34.972656 C 33.652344 35.289062 33.367188 35.546875 33.019531 35.542969 L 24.195312 35.453125 C 23.945312 35.457031 23.746094 35.652344 23.746094 35.894531 C 23.746094 36.132812 23.945312 36.335938 24.195312 36.339844 L 33.019531 36.589844 C 33.367188 36.597656 33.652344 36.859375 33.652344 37.179688 C 33.652344 37.496094 33.367188 37.75 33.019531 37.734375 L 24.195312 37.308594 C 23.945312 37.300781 23.746094 37.492188 23.746094 37.734375 C 23.746094 37.976562 23.945312 38.179688 24.195312 38.1875 L 34.128906 39.066406 C 35.074219 39.097656 36.003906 38.789062 36.742188 38.195312 L 38.433594 36.824219 C 39 36.527344 39.628906 36.375 40.265625 36.375 C 40.265625 36.375 49.75 35.738281 58.898438 36.945312 C 58.898438 36.945312 63.496094 37.878906 63.496094 34.976562 C 63.496094 32.074219 58.898438 33.007812 58.898438 33.007812 C 49.75 34.210938 40.265625 33.574219 40.265625 33.574219 Z M 40.265625 33.574219 " fill-opacity="1" fill-rule="nonzero"/></g><g fill="#ffffff" fill-opacity="1"><g transform="translate(21.777823, 64.576315)"><g><path d="M 3.984375 0 L 3.984375 -3.21875 C 3.765625 -3.320312 3.507812 -3.410156 3.21875 -3.484375 C 2.925781 -3.554688 2.632812 -3.613281 2.34375 -3.65625 C 2.269531 -3.382812 2.203125 -3.109375 2.140625 -2.828125 C 2.078125 -2.554688 2.023438 -2.285156 1.984375 -2.015625 C 1.941406 -1.742188 1.910156 -1.476562 1.890625 -1.21875 C 1.867188 -0.96875 1.859375 -0.722656 1.859375 -0.484375 C 1.859375 -0.222656 1.875 0.03125 1.90625 0.28125 C 1.945312 0.53125 2.035156 0.773438 2.171875 1.015625 C 2.035156 1.015625 1.890625 1 1.734375 0.96875 C 1.585938 0.9375 1.453125 0.867188 1.328125 0.765625 C 1.203125 0.660156 1.097656 0.507812 1.015625 0.3125 C 0.941406 0.125 0.90625 -0.128906 0.90625 -0.453125 C 0.90625 -0.660156 0.914062 -0.890625 0.9375 -1.140625 C 0.96875 -1.398438 1.015625 -1.671875 1.078125 -1.953125 C 1.140625 -2.234375 1.210938 -2.519531 1.296875 -2.8125 C 1.378906 -3.101562 1.476562 -3.394531 1.59375 -3.6875 C 1.414062 -3.675781 1.25 -3.660156 1.09375 -3.640625 C 0.945312 -3.617188 0.816406 -3.582031 0.703125 -3.53125 C 0.597656 -3.488281 0.507812 -3.4375 0.4375 -3.375 C 0.375 -3.320312 0.34375 -3.257812 0.34375 -3.1875 C 0.34375 -3.164062 0.347656 -3.144531 0.359375 -3.125 C 0.515625 -3.082031 0.59375 -2.988281 0.59375 -2.84375 C 0.59375 -2.726562 0.550781 -2.648438 0.46875 -2.609375 C 0.394531 -2.566406 0.3125 -2.546875 0.21875 -2.546875 C 0.0703125 -2.546875 -0.0625 -2.585938 -0.1875 -2.671875 C -0.320312 -2.765625 -0.390625 -2.914062 -0.390625 -3.125 C -0.390625 -3.269531 -0.34375 -3.398438 -0.25 -3.515625 C -0.164062 -3.628906 -0.0507812 -3.722656 0.09375 -3.796875 C 0.25 -3.878906 0.429688 -3.941406 0.640625 -3.984375 C 0.847656 -4.023438 1.070312 -4.046875 1.3125 -4.046875 C 1.375 -4.046875 1.441406 -4.046875 1.515625 -4.046875 C 1.585938 -4.046875 1.660156 -4.039062 1.734375 -4.03125 C 1.878906 -4.382812 2.039062 -4.722656 2.21875 -5.046875 C 2.40625 -5.378906 2.609375 -5.664062 2.828125 -5.90625 C 3.046875 -6.144531 3.269531 -6.332031 3.5 -6.46875 C 3.738281 -6.613281 3.988281 -6.6875 4.25 -6.6875 C 4.34375 -6.6875 4.457031 -6.675781 4.59375 -6.65625 C 4.726562 -6.644531 4.851562 -6.613281 4.96875 -6.5625 L 4.96875 0 Z M 2.421875 -3.9375 C 2.722656 -3.882812 3.007812 -3.816406 3.28125 -3.734375 C 3.550781 -3.660156 3.785156 -3.578125 3.984375 -3.484375 L 3.984375 -6.265625 C 3.835938 -6.253906 3.691406 -6.1875 3.546875 -6.0625 C 3.410156 -5.9375 3.273438 -5.769531 3.140625 -5.5625 C 3.003906 -5.351562 2.875 -5.109375 2.75 -4.828125 C 2.632812 -4.554688 2.523438 -4.257812 2.421875 -3.9375 Z M 4.09375 -7.234375 L 3.609375 -7.234375 L 2.703125 -8.921875 L 3.46875 -8.921875 Z M 4.09375 -7.234375 "/></g></g></g><g fill="#ffffff" fill-opacity="1"><g transform="translate(27.159176, 64.576315)"><g/></g></g><g fill="#ffffff" fill-opacity="1"><g transform="translate(29.077903, 64.576315)"><g><path d="M 1.3125 -6.25 L 1.3125 -1.421875 C 1.3125 -1.367188 1.3125 -1.296875 1.3125 -1.203125 C 1.320312 -1.117188 1.335938 -1.03125 1.359375 -0.9375 C 1.390625 -0.851562 1.429688 -0.78125 1.484375 -0.71875 C 1.535156 -0.65625 1.613281 -0.625 1.71875 -0.625 C 2.007812 -0.625 2.222656 -0.945312 2.359375 -1.59375 L 2.6875 -1.59375 C 2.625 -1.21875 2.539062 -0.921875 2.4375 -0.703125 C 2.332031 -0.492188 2.222656 -0.332031 2.109375 -0.21875 C 1.992188 -0.101562 1.878906 -0.03125 1.765625 0 C 1.648438 0.03125 1.546875 0.046875 1.453125 0.046875 C 1.242188 0.046875 1.070312 0.0078125 0.9375 -0.0625 C 0.800781 -0.144531 0.695312 -0.25 0.625 -0.375 C 0.550781 -0.5 0.5 -0.640625 0.46875 -0.796875 C 0.4375 -0.953125 0.421875 -1.097656 0.421875 -1.234375 L 0.421875 -6.125 Z M 1.3125 -6.25 "/></g></g></g><g fill="#ffffff" fill-opacity="1"><g transform="translate(31.005555, 64.576315)"><g><path d="M 3.703125 -4.453125 L 3.703125 -1.421875 C 3.703125 -1.367188 3.703125 -1.296875 3.703125 -1.203125 C 3.710938 -1.117188 3.726562 -1.03125 3.75 -0.9375 C 3.78125 -0.851562 3.820312 -0.78125 3.875 -0.71875 C 3.9375 -0.65625 4.015625 -0.625 4.109375 -0.625 C 4.398438 -0.625 4.613281 -0.945312 4.75 -1.59375 L 5.078125 -1.59375 C 5.015625 -1.21875 4.929688 -0.921875 4.828125 -0.703125 C 4.722656 -0.492188 4.613281 -0.332031 4.5 -0.21875 C 4.394531 -0.101562 4.28125 -0.03125 4.15625 0 C 4.039062 0.03125 3.9375 0.046875 3.84375 0.046875 C 3.695312 0.046875 3.578125 0.0234375 3.484375 -0.015625 C 3.390625 -0.0664062 3.304688 -0.128906 3.234375 -0.203125 C 3.160156 -0.285156 3.101562 -0.375 3.0625 -0.46875 C 3.019531 -0.570312 2.988281 -0.679688 2.96875 -0.796875 C 2.882812 -0.566406 2.738281 -0.367188 2.53125 -0.203125 C 2.332031 -0.0351562 2.09375 0.046875 1.8125 0.046875 C 1.632812 0.046875 1.453125 0.015625 1.265625 -0.046875 C 1.085938 -0.117188 0.925781 -0.238281 0.78125 -0.40625 C 0.632812 -0.570312 0.515625 -0.78125 0.421875 -1.03125 C 0.328125 -1.289062 0.28125 -1.609375 0.28125 -1.984375 C 0.28125 -2.265625 0.3125 -2.550781 0.375 -2.84375 C 0.4375 -3.144531 0.535156 -3.414062 0.671875 -3.65625 C 0.816406 -3.90625 0.992188 -4.109375 1.203125 -4.265625 C 1.421875 -4.421875 1.679688 -4.5 1.984375 -4.5 C 2.054688 -4.5 2.128906 -4.488281 2.203125 -4.46875 C 2.285156 -4.457031 2.363281 -4.4375 2.4375 -4.40625 C 2.507812 -4.375 2.578125 -4.328125 2.640625 -4.265625 C 2.710938 -4.203125 2.769531 -4.125 2.8125 -4.03125 L 2.8125 -4.453125 Z M 2.03125 -0.625 C 2.125 -0.625 2.210938 -0.648438 2.296875 -0.703125 C 2.390625 -0.753906 2.472656 -0.820312 2.546875 -0.90625 C 2.628906 -0.988281 2.691406 -1.085938 2.734375 -1.203125 C 2.785156 -1.328125 2.8125 -1.457031 2.8125 -1.59375 L 2.8125 -3.625 C 2.769531 -3.726562 2.703125 -3.816406 2.609375 -3.890625 C 2.523438 -3.972656 2.414062 -4.015625 2.28125 -4.015625 C 2.09375 -4.015625 1.929688 -3.945312 1.796875 -3.8125 C 1.660156 -3.6875 1.550781 -3.523438 1.46875 -3.328125 C 1.382812 -3.140625 1.320312 -2.929688 1.28125 -2.703125 C 1.238281 -2.472656 1.21875 -2.253906 1.21875 -2.046875 C 1.21875 -1.535156 1.285156 -1.171875 1.421875 -0.953125 C 1.566406 -0.734375 1.769531 -0.625 2.03125 -0.625 Z M 2.03125 -0.625 "/></g></g></g><g fill="#ffffff" fill-opacity="1"><g transform="translate(35.333843, 64.576315)"><g/></g></g><g fill="#ffffff" fill-opacity="1"><g transform="translate(37.25257, 64.576315)"><g><path d="M 2.4375 -3.09375 C 2.476562 -3.132812 2.515625 -3.203125 2.546875 -3.296875 C 2.578125 -3.390625 2.59375 -3.476562 2.59375 -3.5625 C 2.59375 -3.695312 2.546875 -3.804688 2.453125 -3.890625 C 2.367188 -3.984375 2.25 -4.03125 2.09375 -4.03125 C 1.9375 -4.03125 1.800781 -3.96875 1.6875 -3.84375 C 1.582031 -3.726562 1.5 -3.578125 1.4375 -3.390625 C 1.375 -3.210938 1.328125 -3.015625 1.296875 -2.796875 C 1.273438 -2.578125 1.265625 -2.359375 1.265625 -2.140625 C 1.265625 -1.828125 1.289062 -1.570312 1.34375 -1.375 C 1.394531 -1.175781 1.46875 -1.019531 1.5625 -0.90625 C 1.664062 -0.800781 1.78125 -0.726562 1.90625 -0.6875 C 2.03125 -0.644531 2.164062 -0.625 2.3125 -0.625 C 2.625 -0.625 2.890625 -0.703125 3.109375 -0.859375 C 3.328125 -1.015625 3.515625 -1.257812 3.671875 -1.59375 L 3.96875 -1.59375 C 3.894531 -1.375 3.789062 -1.164062 3.65625 -0.96875 C 3.53125 -0.769531 3.378906 -0.59375 3.203125 -0.4375 C 3.035156 -0.289062 2.847656 -0.171875 2.640625 -0.078125 C 2.441406 0.00390625 2.234375 0.046875 2.015625 0.046875 C 1.804688 0.046875 1.597656 0.015625 1.390625 -0.046875 C 1.191406 -0.117188 1.007812 -0.238281 0.84375 -0.40625 C 0.6875 -0.570312 0.554688 -0.785156 0.453125 -1.046875 C 0.359375 -1.316406 0.3125 -1.644531 0.3125 -2.03125 C 0.3125 -2.28125 0.332031 -2.546875 0.375 -2.828125 C 0.425781 -3.117188 0.507812 -3.382812 0.625 -3.625 C 0.75 -3.875 0.914062 -4.082031 1.125 -4.25 C 1.34375 -4.414062 1.625 -4.5 1.96875 -4.5 C 2.34375 -4.5 2.625 -4.410156 2.8125 -4.234375 C 3.007812 -4.054688 3.109375 -3.789062 3.109375 -3.4375 C 3.109375 -3.289062 3.078125 -3.164062 3.015625 -3.0625 C 2.960938 -2.957031 2.878906 -2.90625 2.765625 -2.90625 C 2.628906 -2.90625 2.519531 -2.96875 2.4375 -3.09375 Z M 2.4375 -3.09375 "/></g></g></g><g fill="#ffffff" fill-opacity="1"><g transform="translate(40.501015, 64.576315)"><g><path d="M 3.703125 -4.453125 L 3.703125 -1.421875 C 3.703125 -1.367188 3.703125 -1.296875 3.703125 -1.203125 C 3.710938 -1.117188 3.726562 -1.03125 3.75 -0.9375 C 3.78125 -0.851562 3.820312 -0.78125 3.875 -0.71875 C 3.9375 -0.65625 4.015625 -0.625 4.109375 -0.625 C 4.398438 -0.625 4.613281 -0.945312 4.75 -1.59375 L 5.078125 -1.59375 C 5.015625 -1.21875 4.929688 -0.921875 4.828125 -0.703125 C 4.722656 -0.492188 4.613281 -0.332031 4.5 -0.21875 C 4.394531 -0.101562 4.28125 -0.03125 4.15625 0 C 4.039062 0.03125 3.9375 0.046875 3.84375 0.046875 C 3.695312 0.046875 3.578125 0.0234375 3.484375 -0.015625 C 3.390625 -0.0664062 3.304688 -0.128906 3.234375 -0.203125 C 3.160156 -0.285156 3.101562 -0.375 3.0625 -0.46875 C 3.019531 -0.570312 2.988281 -0.679688 2.96875 -0.796875 C 2.882812 -0.566406 2.738281 -0.367188 2.53125 -0.203125 C 2.332031 -0.0351562 2.09375 0.046875 1.8125 0.046875 C 1.632812 0.046875 1.453125 0.015625 1.265625 -0.046875 C 1.085938 -0.117188 0.925781 -0.238281 0.78125 -0.40625 C 0.632812 -0.570312 0.515625 -0.78125 0.421875 -1.03125 C 0.328125 -1.289062 0.28125 -1.609375 0.28125 -1.984375 C 0.28125 -2.265625 0.3125 -2.550781 0.375 -2.84375 C 0.4375 -3.144531 0.535156 -3.414062 0.671875 -3.65625 C 0.816406 -3.90625 0.992188 -4.109375 1.203125 -4.265625 C 1.421875 -4.421875 1.679688 -4.5 1.984375 -4.5 C 2.054688 -4.5 2.128906 -4.488281 2.203125 -4.46875 C 2.285156 -4.457031 2.363281 -4.4375 2.4375 -4.40625 C 2.507812 -4.375 2.578125 -4.328125 2.640625 -4.265625 C 2.710938 -4.203125 2.769531 -4.125 2.8125 -4.03125 L 2.8125 -4.453125 Z M 2.03125 -0.625 C 2.125 -0.625 2.210938 -0.648438 2.296875 -0.703125 C 2.390625 -0.753906 2.472656 -0.820312 2.546875 -0.90625 C 2.628906 -0.988281 2.691406 -1.085938 2.734375 -1.203125 C 2.785156 -1.328125 2.8125 -1.457031 2.8125 -1.59375 L 2.8125 -3.625 C 2.769531 -3.726562 2.703125 -3.816406 2.609375 -3.890625 C 2.523438 -3.972656 2.414062 -4.015625 2.28125 -4.015625 C 2.09375 -4.015625 1.929688 -3.945312 1.796875 -3.8125 C 1.660156 -3.6875 1.550781 -3.523438 1.46875 -3.328125 C 1.382812 -3.140625 1.320312 -2.929688 1.28125 -2.703125 C 1.238281 -2.472656 1.21875 -2.253906 1.21875 -2.046875 C 1.21875 -1.535156 1.285156 -1.171875 1.421875 -0.953125 C 1.566406 -0.734375 1.769531 -0.625 2.03125 -0.625 Z M 2.03125 -0.625 "/></g></g></g><g fill="#ffffff" fill-opacity="1"><g transform="translate(44.829303, 64.576315)"><g><path d="M 1.296875 -4.453125 L 1.296875 -3.71875 C 1.367188 -3.820312 1.4375 -3.921875 1.5 -4.015625 C 1.570312 -4.109375 1.648438 -4.191406 1.734375 -4.265625 C 1.816406 -4.335938 1.910156 -4.394531 2.015625 -4.4375 C 2.117188 -4.476562 2.234375 -4.5 2.359375 -4.5 C 2.554688 -4.5 2.703125 -4.445312 2.796875 -4.34375 C 2.890625 -4.238281 2.9375 -4.113281 2.9375 -3.96875 C 2.9375 -3.882812 2.921875 -3.8125 2.890625 -3.75 C 2.867188 -3.6875 2.835938 -3.632812 2.796875 -3.59375 C 2.753906 -3.5625 2.707031 -3.535156 2.65625 -3.515625 C 2.613281 -3.503906 2.570312 -3.5 2.53125 -3.5 C 2.476562 -3.5 2.4375 -3.507812 2.40625 -3.53125 C 2.375 -3.5625 2.335938 -3.585938 2.296875 -3.609375 C 2.265625 -3.640625 2.226562 -3.664062 2.1875 -3.6875 C 2.144531 -3.71875 2.09375 -3.734375 2.03125 -3.734375 C 1.894531 -3.734375 1.765625 -3.679688 1.640625 -3.578125 C 1.515625 -3.484375 1.398438 -3.382812 1.296875 -3.28125 L 1.296875 0 L 0.40625 0 L 0.40625 -4.453125 Z M 1.296875 -4.453125 "/></g></g></g><g fill="#ffffff" fill-opacity="1"><g transform="translate(47.827869, 64.576315)"><g><path d="M 1.3125 -5.8125 L 1.3125 -4.453125 L 2 -4.453125 L 2 -4.15625 L 1.3125 -4.15625 L 1.3125 -1.421875 C 1.3125 -1.359375 1.3125 -1.28125 1.3125 -1.1875 C 1.320312 -1.09375 1.335938 -1.003906 1.359375 -0.921875 C 1.390625 -0.835938 1.429688 -0.765625 1.484375 -0.703125 C 1.546875 -0.648438 1.628906 -0.625 1.734375 -0.625 C 1.890625 -0.625 2.039062 -0.703125 2.1875 -0.859375 C 2.332031 -1.023438 2.445312 -1.269531 2.53125 -1.59375 L 2.859375 -1.59375 C 2.765625 -1.21875 2.65625 -0.921875 2.53125 -0.703125 C 2.414062 -0.492188 2.296875 -0.332031 2.171875 -0.21875 C 2.046875 -0.101562 1.921875 -0.03125 1.796875 0 C 1.679688 0.03125 1.570312 0.046875 1.46875 0.046875 C 1.257812 0.046875 1.082031 0.0078125 0.9375 -0.0625 C 0.800781 -0.144531 0.695312 -0.25 0.625 -0.375 C 0.550781 -0.5 0.5 -0.632812 0.46875 -0.78125 C 0.4375 -0.9375 0.421875 -1.085938 0.421875 -1.234375 L 0.421875 -4.15625 L 0.109375 -4.15625 L 0.109375 -4.453125 L 0.421875 -4.453125 L 0.421875 -5.6875 Z M 1.3125 -5.8125 "/></g></g></g><g fill="#ffffff" fill-opacity="1"><g transform="translate(49.934003, 64.576315)"><g><path d="M 3.203125 -3.34375 C 3.203125 -2.925781 3.03125 -2.578125 2.6875 -2.296875 C 2.34375 -2.015625 1.867188 -1.84375 1.265625 -1.78125 C 1.285156 -1.539062 1.328125 -1.347656 1.390625 -1.203125 C 1.453125 -1.054688 1.523438 -0.9375 1.609375 -0.84375 C 1.703125 -0.757812 1.804688 -0.703125 1.921875 -0.671875 C 2.046875 -0.640625 2.171875 -0.625 2.296875 -0.625 C 2.578125 -0.625 2.84375 -0.695312 3.09375 -0.84375 C 3.34375 -1 3.546875 -1.25 3.703125 -1.59375 L 3.984375 -1.59375 C 3.910156 -1.375 3.804688 -1.164062 3.671875 -0.96875 C 3.535156 -0.769531 3.375 -0.59375 3.1875 -0.4375 C 3 -0.289062 2.796875 -0.171875 2.578125 -0.078125 C 2.367188 0.00390625 2.148438 0.046875 1.921875 0.046875 C 1.710938 0.046875 1.507812 0.015625 1.3125 -0.046875 C 1.125 -0.117188 0.957031 -0.238281 0.8125 -0.40625 C 0.664062 -0.570312 0.546875 -0.785156 0.453125 -1.046875 C 0.359375 -1.304688 0.3125 -1.625 0.3125 -2 C 0.3125 -2.25 0.335938 -2.519531 0.390625 -2.8125 C 0.453125 -3.101562 0.550781 -3.375 0.6875 -3.625 C 0.820312 -3.875 0.992188 -4.082031 1.203125 -4.25 C 1.421875 -4.414062 1.691406 -4.5 2.015625 -4.5 C 2.160156 -4.5 2.300781 -4.484375 2.4375 -4.453125 C 2.582031 -4.421875 2.710938 -4.363281 2.828125 -4.28125 C 2.941406 -4.195312 3.03125 -4.078125 3.09375 -3.921875 C 3.164062 -3.773438 3.203125 -3.582031 3.203125 -3.34375 Z M 1.265625 -2.125 C 1.679688 -2.195312 2.007812 -2.347656 2.25 -2.578125 C 2.5 -2.804688 2.625 -3.09375 2.625 -3.4375 C 2.625 -3.664062 2.585938 -3.828125 2.515625 -3.921875 C 2.441406 -4.015625 2.332031 -4.0625 2.1875 -4.0625 C 2.03125 -4.0625 1.894531 -4.003906 1.78125 -3.890625 C 1.664062 -3.773438 1.566406 -3.625 1.484375 -3.4375 C 1.410156 -3.25 1.351562 -3.039062 1.3125 -2.8125 C 1.28125 -2.582031 1.265625 -2.351562 1.265625 -2.125 Z M 1.265625 -2.125 "/></g></g></g></svg>